solid OpenSCAD_Model
  facet normal -1.30515e-16 -1 -1.79637e-16
    outer loop
      vertex 20.2378 -5.23773e-15 14.2036
      vertex 21.7211 -5.30299e-15 13.4892
      vertex 21.868 -5.33075e-15 13.5369
    endloop
  endfacet
  facet normal -1.30515e-16 -1 -1.79638e-16
    outer loop
      vertex 20.2378 -5.23773e-15 14.2036
      vertex 21.4711 -5.23773e-15 13.3075
      vertex 21.7211 -5.30299e-15 13.4892
    endloop
  endfacet
  facet normal -1.30515e-16 -1 -1.79638e-16
    outer loop
      vertex 20.1469 -5.20343e-15 14.0786
      vertex 21.3803 -5.20343e-15 13.1825
      vertex 21.4711 -5.23773e-15 13.3075
    endloop
  endfacet
  facet normal -1.30514e-16 -1 -1.79637e-16
    outer loop
      vertex 20.1469 -5.20343e-15 14.0786
      vertex 21.2848 -5.13817e-15 12.8886
      vertex 21.3803 -5.20343e-15 13.1825
    endloop
  endfacet
  facet normal -1.30515e-16 -1 -1.79638e-16
    outer loop
      vertex 20.1469 -5.20343e-15 14.0786
      vertex 21.2848 -5.11041e-15 12.7341
      vertex 21.2848 -5.13817e-15 12.8886
    endloop
  endfacet
  facet normal -1.30515e-16 -1 -1.79639e-16
    outer loop
      vertex 20.1469 -5.20343e-15 14.0786
      vertex 21.3803 -5.07008e-15 12.4402
      vertex 21.2848 -5.11041e-15 12.7341
    endloop
  endfacet
  facet normal -1.30515e-16 -1 -1.79638e-16
    outer loop
      vertex 0.769419 -1.45331e-16 3.59122e-06
      vertex 21.3803 -5.07008e-15 12.4402
      vertex 20.1469 -5.20343e-15 14.0786
    endloop
  endfacet
  facet normal -1.30514e-16 -1 -1.79638e-16
    outer loop
      vertex 0.769419 -1.45331e-16 3.59122e-06
      vertex 21.868 -5.07008e-15 12.0859
      vertex 21.7211 -5.05948e-15 12.1336
    endloop
  endfacet
  facet normal -1.30514e-16 -1 -1.79637e-16
    outer loop
      vertex 21.868 -5.07008e-15 12.0859
      vertex 35.6535 -5.30299e-15 3.36671
      vertex 35.8004 -5.33075e-15 3.41445
    endloop
  endfacet
  facet normal -1.30515e-16 -1 -1.79639e-16
    outer loop
      vertex 21.868 -5.07008e-15 12.0859
      vertex 35.4035 -5.23773e-15 3.18507
      vertex 35.6535 -5.30299e-15 3.36671
    endloop
  endfacet
  facet normal -1.30514e-16 -1 -1.79637e-16
    outer loop
      vertex 21.868 -5.07008e-15 12.0859
      vertex 35.3126 -5.20343e-15 3.06007
      vertex 35.4035 -5.23773e-15 3.18507
    endloop
  endfacet
  facet normal -1.30514e-16 -1 -1.79637e-16
    outer loop
      vertex 21.868 -5.07008e-15 12.0859
      vertex 35.2171 -5.13817e-15 2.76618
      vertex 35.3126 -5.20343e-15 3.06007
    endloop
  endfacet
  facet normal -1.30516e-16 -1 -1.79639e-16
    outer loop
      vertex 21.868 -5.07008e-15 12.0859
      vertex 35.2171 -5.11041e-15 2.61167
      vertex 35.2171 -5.13817e-15 2.76618
    endloop
  endfacet
  facet normal -1.30515e-16 -1 -1.79638e-16
    outer loop
      vertex 21.868 -5.07008e-15 12.0859
      vertex 35.3126 -5.07008e-15 2.31778
      vertex 35.2171 -5.11041e-15 2.61167
    endloop
  endfacet
  facet normal -1.30515e-16 -1 -1.79638e-16
    outer loop
      vertex 21.868 -5.07008e-15 12.0859
      vertex 0.769419 -1.45331e-16 3.59122e-06
      vertex 35.3126 -5.07008e-15 2.31778
    endloop
  endfacet
  facet normal -1.30514e-16 -1 -1.79638e-16
    outer loop
      vertex 0.769419 -1.45331e-16 3.59122e-06
      vertex 21.7211 -5.05948e-15 12.1336
      vertex 21.4711 -5.05948e-15 12.3152
    endloop
  endfacet
  facet normal -1.30515e-16 -1 -1.79638e-16
    outer loop
      vertex 39.6559 -5.22058e-15 -6.08273e-06
      vertex 35.6535 -5.05948e-15 2.01114
      vertex 0.769419 -1.45331e-16 3.59122e-06
    endloop
  endfacet
  facet normal -1.30515e-16 -1 -1.79638e-16
    outer loop
      vertex 35.4034 -5.05948e-15 2.19278
      vertex 0.769419 -1.45331e-16 3.59122e-06
      vertex 35.6535 -5.05948e-15 2.01114
    endloop
  endfacet
  facet normal -1.30515e-16 -1 -1.79636e-16
    outer loop
      vertex 35.3126 -5.07008e-15 2.31778
      vertex 0.769419 -1.45331e-16 3.59122e-06
      vertex 35.4034 -5.05948e-15 2.19278
    endloop
  endfacet
  facet normal -1.30515e-16 -1 -1.79637e-16
    outer loop
      vertex 21.3803 -5.07008e-15 12.4402
      vertex 0.769419 -1.45331e-16 3.59122e-06
      vertex 21.4711 -5.05948e-15 12.3152
    endloop
  endfacet
  facet normal -1.30514e-16 -1 -1.79637e-16
    outer loop
      vertex 21.4711 -5.23773e-15 13.3075
      vertex 20.2378 -5.23773e-15 14.2036
      vertex 20.1469 -5.20343e-15 14.0786
    endloop
  endfacet
  facet normal -1.30514e-16 -1 -1.79637e-16
    outer loop
      vertex 22.177 -5.37108e-15 13.5369
      vertex 20.2378 -5.23773e-15 14.2036
      vertex 21.868 -5.33075e-15 13.5369
    endloop
  endfacet
  facet normal -1.30515e-16 -1 -1.79638e-16
    outer loop
      vertex 20.2378 -5.23773e-15 14.2036
      vertex 22.177 -5.37108e-15 13.5369
      vertex 27.6393 -1.02958e-14 36.9832
    endloop
  endfacet
  facet normal -1.30514e-16 -1 -1.79638e-16
    outer loop
      vertex 22.324 -5.38168e-15 13.4892
      vertex 27.6393 -1.02958e-14 36.9832
      vertex 22.177 -5.37108e-15 13.5369
    endloop
  endfacet
  facet normal -1.30514e-16 -1 -1.79638e-16
    outer loop
      vertex 22.574 -5.38168e-15 13.3075
      vertex 27.6393 -1.02958e-14 36.9832
      vertex 22.324 -5.38168e-15 13.4892
    endloop
  endfacet
  facet normal -1.30516e-16 -1 -1.79638e-16
    outer loop
      vertex 22.6648 -5.37108e-15 13.1825
      vertex 27.6393 -1.02958e-14 36.9832
      vertex 22.574 -5.38168e-15 13.3075
    endloop
  endfacet
  facet normal -1.30514e-16 -1 -1.79638e-16
    outer loop
      vertex 36.1094 -5.37108e-15 3.41445
      vertex 22.6648 -5.37108e-15 13.1825
      vertex 22.7603 -5.33075e-15 12.8886
    endloop
  endfacet
  facet normal -1.30515e-16 -1 -1.79638e-16
    outer loop
      vertex 35.8004 -5.33075e-15 3.41445
      vertex 22.7603 -5.33075e-15 12.8886
      vertex 22.7603 -5.30299e-15 12.7341
    endloop
  endfacet
  facet normal -1.30515e-16 -1 -1.79639e-16
    outer loop
      vertex 35.8004 -5.33075e-15 3.41445
      vertex 22.177 -5.11041e-15 12.0859
      vertex 21.868 -5.07008e-15 12.0859
    endloop
  endfacet
  facet normal -1.30514e-16 -1 -1.79638e-16
    outer loop
      vertex 35.8004 -5.33075e-15 3.41445
      vertex 22.324 -5.13817e-15 12.1336
      vertex 22.177 -5.11041e-15 12.0859
    endloop
  endfacet
  facet normal -1.30515e-16 -1 -1.79638e-16
    outer loop
      vertex 35.8004 -5.33075e-15 3.41445
      vertex 22.574 -5.20343e-15 12.3152
      vertex 22.324 -5.13817e-15 12.1336
    endloop
  endfacet
  facet normal -1.30515e-16 -1 -1.79638e-16
    outer loop
      vertex 35.8004 -5.33075e-15 3.41445
      vertex 22.6648 -5.23773e-15 12.4402
      vertex 22.574 -5.20343e-15 12.3152
    endloop
  endfacet
  facet normal -1.30514e-16 -1 -1.79638e-16
    outer loop
      vertex 35.8004 -5.33075e-15 3.41445
      vertex 22.7603 -5.30299e-15 12.7341
      vertex 22.6648 -5.23773e-15 12.4402
    endloop
  endfacet
  facet normal -1.30515e-16 -1 -1.79639e-16
    outer loop
      vertex 22.7603 -5.33075e-15 12.8886
      vertex 35.8004 -5.33075e-15 3.41445
      vertex 36.1094 -5.37108e-15 3.41445
    endloop
  endfacet
  facet normal -1.30515e-16 -1 -1.79638e-16
    outer loop
      vertex 22.6648 -5.37108e-15 13.1825
      vertex 36.1094 -5.37108e-15 3.41445
      vertex 27.6393 -1.02958e-14 36.9832
    endloop
  endfacet
  facet normal -1.30515e-16 -1 -1.79638e-16
    outer loop
      vertex 36.2564 -5.38168e-15 3.3667
      vertex 27.6393 -1.02958e-14 36.9832
      vertex 36.1094 -5.37108e-15 3.41445
    endloop
  endfacet
  facet normal -1.30514e-16 -1 -1.79638e-16
    outer loop
      vertex 36.5064 -5.38168e-15 3.18506
      vertex 27.6393 -1.02958e-14 36.9832
      vertex 36.2564 -5.38168e-15 3.3667
    endloop
  endfacet
  facet normal -1.30521e-16 -1 -1.79644e-16
    outer loop
      vertex 39.6559 -5.22058e-15 -6.08273e-06
      vertex 36.5064 -5.38168e-15 3.18506
      vertex 36.5972 -5.37108e-15 3.06007
    endloop
  endfacet
  facet normal -1.30514e-16 -1 -1.79637e-16
    outer loop
      vertex 39.6559 -5.22058e-15 -6.08273e-06
      vertex 36.5972 -5.37108e-15 3.06007
      vertex 36.6927 -5.33075e-15 2.76618
    endloop
  endfacet
  facet normal -1.30515e-16 -1 -1.79639e-16
    outer loop
      vertex 35.6535 -5.05948e-15 2.01114
      vertex 39.6559 -5.22058e-15 -6.08273e-06
      vertex 35.8004 -5.07008e-15 1.9634
    endloop
  endfacet
  facet normal -1.30515e-16 -1 -1.79638e-16
    outer loop
      vertex 36.5064 -5.38168e-15 3.18506
      vertex 39.6559 -5.22058e-15 -6.08273e-06
      vertex 27.6393 -1.02958e-14 36.9832
    endloop
  endfacet
  facet normal -1.30516e-16 -1 -1.7964e-16
    outer loop
      vertex 36.6927 -5.30299e-15 2.61167
      vertex 39.6559 -5.22058e-15 -6.08273e-06
      vertex 36.6927 -5.33075e-15 2.76618
    endloop
  endfacet
  facet normal -1.30513e-16 -1 -1.79636e-16
    outer loop
      vertex 36.5972 -5.23773e-15 2.31778
      vertex 39.6559 -5.22058e-15 -6.08273e-06
      vertex 36.6927 -5.30299e-15 2.61167
    endloop
  endfacet
  facet normal -1.30516e-16 -1 -1.7964e-16
    outer loop
      vertex 36.5064 -5.20343e-15 2.19277
      vertex 39.6559 -5.22058e-15 -6.08273e-06
      vertex 36.5972 -5.23773e-15 2.31778
    endloop
  endfacet
  facet normal -1.30515e-16 -1 -1.79638e-16
    outer loop
      vertex 36.2564 -5.13817e-15 2.01114
      vertex 39.6559 -5.22058e-15 -6.08273e-06
      vertex 36.5064 -5.20343e-15 2.19277
    endloop
  endfacet
  facet normal -1.30514e-16 -1 -1.79636e-16
    outer loop
      vertex 36.1094 -5.11041e-15 1.9634
      vertex 39.6559 -5.22058e-15 -6.08273e-06
      vertex 36.2564 -5.13817e-15 2.01114
    endloop
  endfacet
  facet normal -1.30514e-16 -1 -1.79637e-16
    outer loop
      vertex 35.8004 -5.07008e-15 1.9634
      vertex 39.6559 -5.22058e-15 -6.08273e-06
      vertex 36.1094 -5.11041e-15 1.9634
    endloop
  endfacet
  facet normal 0 1 -0
    outer loop
      vertex 21.7211 3 13.4892
      vertex 20.2378 3 14.2036
      vertex 21.868 3 13.5369
    endloop
  endfacet
  facet normal 0 1 -0
    outer loop
      vertex 22.177 3 13.5369
      vertex 20.2378 3 14.2036
      vertex 27.6393 3 36.9832
    endloop
  endfacet
  facet normal 0 1 0
    outer loop
      vertex 20.2378 3 14.2036
      vertex 22.177 3 13.5369
      vertex 21.868 3 13.5369
    endloop
  endfacet
  facet normal 0 1 0
    outer loop
      vertex 27.6393 3 36.9832
      vertex 22.324 3 13.4892
      vertex 22.177 3 13.5369
    endloop
  endfacet
  facet normal 0 1 0
    outer loop
      vertex 27.6393 3 36.9832
      vertex 22.574 3 13.3075
      vertex 22.324 3 13.4892
    endloop
  endfacet
  facet normal 0 1 0
    outer loop
      vertex 27.6393 3 36.9832
      vertex 22.6648 3 13.1825
      vertex 22.574 3 13.3075
    endloop
  endfacet
  facet normal 0 1 0
    outer loop
      vertex 36.1094 3 3.41445
      vertex 22.6648 3 13.1825
      vertex 27.6393 3 36.9832
    endloop
  endfacet
  facet normal 0 1 0
    outer loop
      vertex 22.6648 3 13.1825
      vertex 36.1094 3 3.41445
      vertex 22.7603 3 12.8886
    endloop
  endfacet
  facet normal 0 1 -0
    outer loop
      vertex 35.3126 3 3.06007
      vertex 22.574 3 12.3152
      vertex 35.4035 3 3.18507
    endloop
  endfacet
  facet normal 0 1 0
    outer loop
      vertex 22.6648 3 12.4402
      vertex 35.4035 3 3.18507
      vertex 22.574 3 12.3152
    endloop
  endfacet
  facet normal 0 1 -0
    outer loop
      vertex 35.4035 3 3.18507
      vertex 22.6648 3 12.4402
      vertex 35.6535 3 3.36671
    endloop
  endfacet
  facet normal 0 1 0
    outer loop
      vertex 22.7603 3 12.7341
      vertex 35.6535 3 3.36671
      vertex 22.6648 3 12.4402
    endloop
  endfacet
  facet normal 0 1 -0
    outer loop
      vertex 35.6535 3 3.36671
      vertex 22.7603 3 12.7341
      vertex 35.8004 3 3.41445
    endloop
  endfacet
  facet normal -0 1 -0
    outer loop
      vertex 35.8004 3 3.41445
      vertex 22.7603 3 12.8886
      vertex 36.1094 3 3.41445
    endloop
  endfacet
  facet normal 0 1 0
    outer loop
      vertex 22.7603 3 12.8886
      vertex 35.8004 3 3.41445
      vertex 22.7603 3 12.7341
    endloop
  endfacet
  facet normal 0 1 0
    outer loop
      vertex 27.6393 3 36.9832
      vertex 36.2564 3 3.3667
      vertex 36.1094 3 3.41445
    endloop
  endfacet
  facet normal 0 1 0
    outer loop
      vertex 27.6393 3 36.9832
      vertex 36.5064 3 3.18506
      vertex 36.2564 3 3.3667
    endloop
  endfacet
  facet normal 0 1 0
    outer loop
      vertex 39.6559 3 -6.08273e-06
      vertex 36.5064 3 3.18506
      vertex 27.6393 3 36.9832
    endloop
  endfacet
  facet normal 0 1 0
    outer loop
      vertex 36.5064 3 3.18506
      vertex 39.6559 3 -6.08273e-06
      vertex 36.5972 3 3.06007
    endloop
  endfacet
  facet normal 0 1 0
    outer loop
      vertex 39.6559 3 -6.08273e-06
      vertex 35.8004 3 1.9634
      vertex 36.1094 3 1.9634
    endloop
  endfacet
  facet normal 0 1 0
    outer loop
      vertex 35.8004 3 1.9634
      vertex 39.6559 3 -6.08273e-06
      vertex 0.769419 3 3.59122e-06
    endloop
  endfacet
  facet normal 0 1 0
    outer loop
      vertex 36.2564 3 2.01114
      vertex 39.6559 3 -6.08273e-06
      vertex 36.1094 3 1.9634
    endloop
  endfacet
  facet normal 0 1 0
    outer loop
      vertex 36.5064 3 2.19277
      vertex 39.6559 3 -6.08273e-06
      vertex 36.2564 3 2.01114
    endloop
  endfacet
  facet normal 0 1 0
    outer loop
      vertex 36.5972 3 2.31778
      vertex 39.6559 3 -6.08273e-06
      vertex 36.5064 3 2.19277
    endloop
  endfacet
  facet normal 0 1 0
    outer loop
      vertex 36.6927 3 2.61167
      vertex 39.6559 3 -6.08273e-06
      vertex 36.5972 3 2.31778
    endloop
  endfacet
  facet normal 0 1 0
    outer loop
      vertex 36.6927 3 2.76618
      vertex 39.6559 3 -6.08273e-06
      vertex 36.6927 3 2.61167
    endloop
  endfacet
  facet normal 0 1 0
    outer loop
      vertex 36.5972 3 3.06007
      vertex 39.6559 3 -6.08273e-06
      vertex 36.6927 3 2.76618
    endloop
  endfacet
  facet normal 0 1 -0
    outer loop
      vertex 21.4711 3 13.3075
      vertex 20.2378 3 14.2036
      vertex 21.7211 3 13.4892
    endloop
  endfacet
  facet normal 0 1 0
    outer loop
      vertex 20.2378 3 14.2036
      vertex 21.4711 3 13.3075
      vertex 20.1469 3 14.0786
    endloop
  endfacet
  facet normal 0 1 -0
    outer loop
      vertex 21.3803 3 13.1825
      vertex 20.1469 3 14.0786
      vertex 21.4711 3 13.3075
    endloop
  endfacet
  facet normal 0 1 -0
    outer loop
      vertex 21.2848 3 12.8886
      vertex 20.1469 3 14.0786
      vertex 21.3803 3 13.1825
    endloop
  endfacet
  facet normal 0 1 0
    outer loop
      vertex 21.2848 3 12.7341
      vertex 20.1469 3 14.0786
      vertex 21.2848 3 12.8886
    endloop
  endfacet
  facet normal 0 1 0
    outer loop
      vertex 21.3803 3 12.4402
      vertex 20.1469 3 14.0786
      vertex 21.2848 3 12.7341
    endloop
  endfacet
  facet normal 0 1 0
    outer loop
      vertex 0.769419 3 3.59122e-06
      vertex 21.3803 3 12.4402
      vertex 21.4711 3 12.3152
    endloop
  endfacet
  facet normal 0 1 0
    outer loop
      vertex 22.574 3 12.3152
      vertex 35.3126 3 3.06007
      vertex 22.324 3 12.1336
    endloop
  endfacet
  facet normal 0 1 -0
    outer loop
      vertex 35.2171 3 2.76618
      vertex 22.324 3 12.1336
      vertex 35.3126 3 3.06007
    endloop
  endfacet
  facet normal 0 1 0
    outer loop
      vertex 22.324 3 12.1336
      vertex 35.2171 3 2.76618
      vertex 22.177 3 12.0859
    endloop
  endfacet
  facet normal 0 1 0
    outer loop
      vertex 35.2171 3 2.61167
      vertex 22.177 3 12.0859
      vertex 35.2171 3 2.76618
    endloop
  endfacet
  facet normal 0 1 0
    outer loop
      vertex 22.177 3 12.0859
      vertex 35.2171 3 2.61167
      vertex 21.868 3 12.0859
    endloop
  endfacet
  facet normal 0 1 0
    outer loop
      vertex 35.3126 3 2.31778
      vertex 21.868 3 12.0859
      vertex 35.2171 3 2.61167
    endloop
  endfacet
  facet normal 0 1 0
    outer loop
      vertex 0.769419 3 3.59122e-06
      vertex 21.868 3 12.0859
      vertex 35.3126 3 2.31778
    endloop
  endfacet
  facet normal 0 1 0
    outer loop
      vertex 0.769419 3 3.59122e-06
      vertex 35.3126 3 2.31778
      vertex 35.4034 3 2.19278
    endloop
  endfacet
  facet normal 0 1 0
    outer loop
      vertex 21.868 3 12.0859
      vertex 0.769419 3 3.59122e-06
      vertex 21.7211 3 12.1336
    endloop
  endfacet
  facet normal 0 1 0
    outer loop
      vertex 21.3803 3 12.4402
      vertex 0.769419 3 3.59122e-06
      vertex 20.1469 3 14.0786
    endloop
  endfacet
  facet normal 0 1 0
    outer loop
      vertex 21.7211 3 12.1336
      vertex 0.769419 3 3.59122e-06
      vertex 21.4711 3 12.3152
    endloop
  endfacet
  facet normal 0 1 0
    outer loop
      vertex 35.6535 3 2.01114
      vertex 0.769419 3 3.59122e-06
      vertex 35.4034 3 2.19278
    endloop
  endfacet
  facet normal 0 1 0
    outer loop
      vertex 0.769419 3 3.59122e-06
      vertex 35.6535 3 2.01114
      vertex 35.8004 3 1.9634
    endloop
  endfacet
  facet normal -2.48774e-07 0 -1
    outer loop
      vertex 0.769419 -1.45331e-16 3.59122e-06
      vertex 39.6559 3 -6.08273e-06
      vertex 39.6559 -5.22058e-15 -6.08273e-06
    endloop
  endfacet
  facet normal -2.48774e-07 0 -1
    outer loop
      vertex 39.6559 3 -6.08273e-06
      vertex 0.769419 -1.45331e-16 3.59122e-06
      vertex 0.769419 3 3.59122e-06
    endloop
  endfacet
  facet normal -0.587785 0 0.809017
    outer loop
      vertex 0.769419 3 3.59122e-06
      vertex 20.1469 -5.20343e-15 14.0786
      vertex 20.1469 3 14.0786
    endloop
  endfacet
  facet normal -0.587785 0 0.809017
    outer loop
      vertex 20.1469 -5.20343e-15 14.0786
      vertex 0.769419 3 3.59122e-06
      vertex 0.769419 -1.45331e-16 3.59122e-06
    endloop
  endfacet
  facet normal -0.809014 0 0.58779
    outer loop
      vertex 20.1469 -5.20343e-15 14.0786
      vertex 20.2378 3 14.2036
      vertex 20.1469 3 14.0786
    endloop
  endfacet
  facet normal -0.809014 0 0.58779
    outer loop
      vertex 20.2378 3 14.2036
      vertex 20.1469 -5.20343e-15 14.0786
      vertex 20.2378 -5.23773e-15 14.2036
    endloop
  endfacet
  facet normal -0.951056 0 0.309017
    outer loop
      vertex 20.2378 -5.23773e-15 14.2036
      vertex 27.6393 3 36.9832
      vertex 20.2378 3 14.2036
    endloop
  endfacet
  facet normal -0.951056 0 0.309017
    outer loop
      vertex 27.6393 3 36.9832
      vertex 20.2378 -5.23773e-15 14.2036
      vertex 27.6393 -1.02958e-14 36.9832
    endloop
  endfacet
  facet normal 0.951057 0 0.309017
    outer loop
      vertex 27.6393 3 36.9832
      vertex 39.6559 -5.22058e-15 -6.08273e-06
      vertex 39.6559 3 -6.08273e-06
    endloop
  endfacet
  facet normal 0.951057 0 0.309017
    outer loop
      vertex 39.6559 -5.22058e-15 -6.08273e-06
      vertex 27.6393 3 36.9832
      vertex 27.6393 -1.02958e-14 36.9832
    endloop
  endfacet
  facet normal -0.309015 0 -0.951057
    outer loop
      vertex 36.1094 -5.37108e-15 3.41445
      vertex 36.2564 3 3.3667
      vertex 36.2564 -5.38168e-15 3.3667
    endloop
  endfacet
  facet normal -0.309015 0 -0.951057
    outer loop
      vertex 36.2564 3 3.3667
      vertex 36.1094 -5.37108e-15 3.41445
      vertex 36.1094 3 3.41445
    endloop
  endfacet
  facet normal -2.70045e-05 0 -1
    outer loop
      vertex 35.8004 -5.33075e-15 3.41445
      vertex 36.1094 3 3.41445
      vertex 36.1094 -5.37108e-15 3.41445
    endloop
  endfacet
  facet normal -2.70045e-05 0 -1
    outer loop
      vertex 36.1094 3 3.41445
      vertex 35.8004 -5.33075e-15 3.41445
      vertex 35.8004 3 3.41445
    endloop
  endfacet
  facet normal 0.309002 0 -0.951061
    outer loop
      vertex 35.6535 -5.30299e-15 3.36671
      vertex 35.8004 3 3.41445
      vertex 35.8004 -5.33075e-15 3.41445
    endloop
  endfacet
  facet normal 0.309002 0 -0.951061
    outer loop
      vertex 35.8004 3 3.41445
      vertex 35.6535 -5.30299e-15 3.36671
      vertex 35.6535 3 3.36671
    endloop
  endfacet
  facet normal 0.5878 0 -0.809006
    outer loop
      vertex 35.4035 -5.23773e-15 3.18507
      vertex 35.6535 3 3.36671
      vertex 35.6535 -5.30299e-15 3.36671
    endloop
  endfacet
  facet normal 0.5878 0 -0.809006
    outer loop
      vertex 35.6535 3 3.36671
      vertex 35.4035 -5.23773e-15 3.18507
      vertex 35.4035 3 3.18507
    endloop
  endfacet
  facet normal 0.809013 0 -0.587791
    outer loop
      vertex 35.4035 3 3.18507
      vertex 35.3126 -5.20343e-15 3.06007
      vertex 35.3126 3 3.06007
    endloop
  endfacet
  facet normal 0.809013 0 -0.587791
    outer loop
      vertex 35.3126 -5.20343e-15 3.06007
      vertex 35.4035 3 3.18507
      vertex 35.4035 -5.23773e-15 3.18507
    endloop
  endfacet
  facet normal 0.951056 0 -0.309019
    outer loop
      vertex 35.3126 3 3.06007
      vertex 35.2171 -5.13817e-15 2.76618
      vertex 35.2171 3 2.76618
    endloop
  endfacet
  facet normal 0.951056 0 -0.309019
    outer loop
      vertex 35.2171 -5.13817e-15 2.76618
      vertex 35.3126 3 3.06007
      vertex 35.3126 -5.20343e-15 3.06007
    endloop
  endfacet
  facet normal 1 0 2.4689e-05
    outer loop
      vertex 35.2171 3 2.76618
      vertex 35.2171 -5.11041e-15 2.61167
      vertex 35.2171 3 2.61167
    endloop
  endfacet
  facet normal 1 0 2.4689e-05
    outer loop
      vertex 35.2171 -5.11041e-15 2.61167
      vertex 35.2171 3 2.76618
      vertex 35.2171 -5.13817e-15 2.76618
    endloop
  endfacet
  facet normal 0.95106 0 0.309007
    outer loop
      vertex 35.2171 3 2.61167
      vertex 35.3126 -5.07008e-15 2.31778
      vertex 35.3126 3 2.31778
    endloop
  endfacet
  facet normal 0.95106 0 0.309007
    outer loop
      vertex 35.3126 -5.07008e-15 2.31778
      vertex 35.2171 3 2.61167
      vertex 35.2171 -5.11041e-15 2.61167
    endloop
  endfacet
  facet normal 0.809025 0 0.587774
    outer loop
      vertex 35.3126 3 2.31778
      vertex 35.4034 -5.05948e-15 2.19278
      vertex 35.4034 3 2.19278
    endloop
  endfacet
  facet normal 0.809025 0 0.587774
    outer loop
      vertex 35.4034 -5.05948e-15 2.19278
      vertex 35.3126 3 2.31778
      vertex 35.3126 -5.07008e-15 2.31778
    endloop
  endfacet
  facet normal 0.587784 0 0.809018
    outer loop
      vertex 35.4034 3 2.19278
      vertex 35.6535 -5.05948e-15 2.01114
      vertex 35.6535 3 2.01114
    endloop
  endfacet
  facet normal 0.587784 0 0.809018
    outer loop
      vertex 35.6535 -5.05948e-15 2.01114
      vertex 35.4034 3 2.19278
      vertex 35.4034 -5.05948e-15 2.19278
    endloop
  endfacet
  facet normal 0.309016 0 0.951057
    outer loop
      vertex 35.6535 3 2.01114
      vertex 35.8004 -5.07008e-15 1.9634
      vertex 35.8004 3 1.9634
    endloop
  endfacet
  facet normal 0.309016 0 0.951057
    outer loop
      vertex 35.8004 -5.07008e-15 1.9634
      vertex 35.6535 3 2.01114
      vertex 35.6535 -5.05948e-15 2.01114
    endloop
  endfacet
  facet normal -1.3116e-05 0 1
    outer loop
      vertex 35.8004 3 1.9634
      vertex 36.1094 -5.11041e-15 1.9634
      vertex 36.1094 3 1.9634
    endloop
  endfacet
  facet normal -1.3116e-05 0 1
    outer loop
      vertex 36.1094 -5.11041e-15 1.9634
      vertex 35.8004 3 1.9634
      vertex 35.8004 -5.07008e-15 1.9634
    endloop
  endfacet
  facet normal -0.309002 0 0.951061
    outer loop
      vertex 36.1094 3 1.9634
      vertex 36.2564 -5.13817e-15 2.01114
      vertex 36.2564 3 2.01114
    endloop
  endfacet
  facet normal -0.309002 0 0.951061
    outer loop
      vertex 36.2564 -5.13817e-15 2.01114
      vertex 36.1094 3 1.9634
      vertex 36.1094 -5.11041e-15 1.9634
    endloop
  endfacet
  facet normal -0.587785 0 0.809017
    outer loop
      vertex 36.2564 3 2.01114
      vertex 36.5064 -5.20343e-15 2.19277
      vertex 36.5064 3 2.19277
    endloop
  endfacet
  facet normal -0.587785 0 0.809017
    outer loop
      vertex 36.5064 -5.20343e-15 2.19277
      vertex 36.2564 3 2.01114
      vertex 36.2564 -5.13817e-15 2.01114
    endloop
  endfacet
  facet normal -0.809025 0 0.587775
    outer loop
      vertex 36.5064 -5.20343e-15 2.19277
      vertex 36.5972 3 2.31778
      vertex 36.5064 3 2.19277
    endloop
  endfacet
  facet normal -0.809025 0 0.587775
    outer loop
      vertex 36.5972 3 2.31778
      vertex 36.5064 -5.20343e-15 2.19277
      vertex 36.5972 -5.23773e-15 2.31778
    endloop
  endfacet
  facet normal -0.951049 0 0.30904
    outer loop
      vertex 36.5972 -5.23773e-15 2.31778
      vertex 36.6927 3 2.61167
      vertex 36.5972 3 2.31778
    endloop
  endfacet
  facet normal -0.951049 0 0.30904
    outer loop
      vertex 36.6927 3 2.61167
      vertex 36.5972 -5.23773e-15 2.31778
      vertex 36.6927 -5.30299e-15 2.61167
    endloop
  endfacet
  facet normal -1 0 -2.4689e-05
    outer loop
      vertex 36.6927 -5.30299e-15 2.61167
      vertex 36.6927 3 2.76618
      vertex 36.6927 3 2.61167
    endloop
  endfacet
  facet normal -1 -0 -2.4689e-05
    outer loop
      vertex 36.6927 3 2.76618
      vertex 36.6927 -5.30299e-15 2.61167
      vertex 36.6927 -5.33075e-15 2.76618
    endloop
  endfacet
  facet normal -0.951049 0 -0.309041
    outer loop
      vertex 36.6927 -5.33075e-15 2.76618
      vertex 36.5972 3 3.06007
      vertex 36.6927 3 2.76618
    endloop
  endfacet
  facet normal -0.951049 -0 -0.309041
    outer loop
      vertex 36.5972 3 3.06007
      vertex 36.6927 -5.33075e-15 2.76618
      vertex 36.5972 -5.37108e-15 3.06007
    endloop
  endfacet
  facet normal -0.809014 0 -0.58779
    outer loop
      vertex 36.5972 -5.37108e-15 3.06007
      vertex 36.5064 3 3.18506
      vertex 36.5972 3 3.06007
    endloop
  endfacet
  facet normal -0.809014 -0 -0.58779
    outer loop
      vertex 36.5064 3 3.18506
      vertex 36.5972 -5.37108e-15 3.06007
      vertex 36.5064 -5.38168e-15 3.18506
    endloop
  endfacet
  facet normal -0.587784 0 -0.809018
    outer loop
      vertex 36.2564 -5.38168e-15 3.3667
      vertex 36.5064 3 3.18506
      vertex 36.5064 -5.38168e-15 3.18506
    endloop
  endfacet
  facet normal -0.587784 0 -0.809018
    outer loop
      vertex 36.5064 3 3.18506
      vertex 36.2564 -5.38168e-15 3.3667
      vertex 36.2564 3 3.3667
    endloop
  endfacet
  facet normal -0.309013 0 -0.951058
    outer loop
      vertex 22.177 -5.37108e-15 13.5369
      vertex 22.324 3 13.4892
      vertex 22.324 -5.38168e-15 13.4892
    endloop
  endfacet
  facet normal -0.309013 0 -0.951058
    outer loop
      vertex 22.324 3 13.4892
      vertex 22.177 -5.37108e-15 13.5369
      vertex 22.177 3 13.5369
    endloop
  endfacet
  facet normal -2.77759e-05 0 -1
    outer loop
      vertex 21.868 -5.33075e-15 13.5369
      vertex 22.177 3 13.5369
      vertex 22.177 -5.37108e-15 13.5369
    endloop
  endfacet
  facet normal -2.77759e-05 0 -1
    outer loop
      vertex 22.177 3 13.5369
      vertex 21.868 -5.33075e-15 13.5369
      vertex 21.868 3 13.5369
    endloop
  endfacet
  facet normal 0.309008 0 -0.951059
    outer loop
      vertex 21.7211 -5.30299e-15 13.4892
      vertex 21.868 3 13.5369
      vertex 21.868 -5.33075e-15 13.5369
    endloop
  endfacet
  facet normal 0.309008 0 -0.951059
    outer loop
      vertex 21.868 3 13.5369
      vertex 21.7211 -5.30299e-15 13.4892
      vertex 21.7211 3 13.4892
    endloop
  endfacet
  facet normal 0.587795 0 -0.80901
    outer loop
      vertex 21.4711 -5.23773e-15 13.3075
      vertex 21.7211 3 13.4892
      vertex 21.7211 -5.30299e-15 13.4892
    endloop
  endfacet
  facet normal 0.587795 0 -0.80901
    outer loop
      vertex 21.7211 3 13.4892
      vertex 21.4711 -5.23773e-15 13.3075
      vertex 21.4711 3 13.3075
    endloop
  endfacet
  facet normal 0.809019 0 -0.587782
    outer loop
      vertex 21.4711 3 13.3075
      vertex 21.3803 -5.20343e-15 13.1825
      vertex 21.3803 3 13.1825
    endloop
  endfacet
  facet normal 0.809019 0 -0.587782
    outer loop
      vertex 21.3803 -5.20343e-15 13.1825
      vertex 21.4711 3 13.3075
      vertex 21.4711 -5.23773e-15 13.3075
    endloop
  endfacet
  facet normal 0.951056 0 -0.309018
    outer loop
      vertex 21.3803 3 13.1825
      vertex 21.2848 -5.13817e-15 12.8886
      vertex 21.2848 3 12.8886
    endloop
  endfacet
  facet normal 0.951056 0 -0.309018
    outer loop
      vertex 21.2848 -5.13817e-15 12.8886
      vertex 21.3803 3 13.1825
      vertex 21.3803 -5.20343e-15 13.1825
    endloop
  endfacet
  facet normal 1 0 1.23445e-05
    outer loop
      vertex 21.2848 3 12.8886
      vertex 21.2848 -5.11041e-15 12.7341
      vertex 21.2848 3 12.7341
    endloop
  endfacet
  facet normal 1 0 1.23445e-05
    outer loop
      vertex 21.2848 -5.11041e-15 12.7341
      vertex 21.2848 3 12.8886
      vertex 21.2848 -5.13817e-15 12.8886
    endloop
  endfacet
  facet normal 0.95106 0 0.309007
    outer loop
      vertex 21.2848 3 12.7341
      vertex 21.3803 -5.07008e-15 12.4402
      vertex 21.3803 3 12.4402
    endloop
  endfacet
  facet normal 0.95106 0 0.309007
    outer loop
      vertex 21.3803 -5.07008e-15 12.4402
      vertex 21.2848 3 12.7341
      vertex 21.2848 -5.11041e-15 12.7341
    endloop
  endfacet
  facet normal 0.809021 0 0.58778
    outer loop
      vertex 21.3803 3 12.4402
      vertex 21.4711 -5.05948e-15 12.3152
      vertex 21.4711 3 12.3152
    endloop
  endfacet
  facet normal 0.809021 0 0.58778
    outer loop
      vertex 21.4711 -5.05948e-15 12.3152
      vertex 21.3803 3 12.4402
      vertex 21.3803 -5.07008e-15 12.4402
    endloop
  endfacet
  facet normal 0.587784 0 0.809018
    outer loop
      vertex 21.4711 3 12.3152
      vertex 21.7211 -5.05948e-15 12.1336
      vertex 21.7211 3 12.1336
    endloop
  endfacet
  facet normal 0.587784 0 0.809018
    outer loop
      vertex 21.7211 -5.05948e-15 12.1336
      vertex 21.4711 3 12.3152
      vertex 21.4711 -5.05948e-15 12.3152
    endloop
  endfacet
  facet normal 0.309013 0 0.951058
    outer loop
      vertex 21.7211 3 12.1336
      vertex 21.868 -5.07008e-15 12.0859
      vertex 21.868 3 12.0859
    endloop
  endfacet
  facet normal 0.309013 0 0.951058
    outer loop
      vertex 21.868 -5.07008e-15 12.0859
      vertex 21.7211 3 12.1336
      vertex 21.7211 -5.05948e-15 12.1336
    endloop
  endfacet
  facet normal -1.23445e-05 0 1
    outer loop
      vertex 21.868 3 12.0859
      vertex 22.177 -5.11041e-15 12.0859
      vertex 22.177 3 12.0859
    endloop
  endfacet
  facet normal -1.23445e-05 0 1
    outer loop
      vertex 22.177 -5.11041e-15 12.0859
      vertex 21.868 3 12.0859
      vertex 21.868 -5.07008e-15 12.0859
    endloop
  endfacet
  facet normal -0.309008 0 0.951059
    outer loop
      vertex 22.177 3 12.0859
      vertex 22.324 -5.13817e-15 12.1336
      vertex 22.324 3 12.1336
    endloop
  endfacet
  facet normal -0.309008 0 0.951059
    outer loop
      vertex 22.324 -5.13817e-15 12.1336
      vertex 22.177 3 12.0859
      vertex 22.177 -5.11041e-15 12.0859
    endloop
  endfacet
  facet normal -0.58778 0 0.809021
    outer loop
      vertex 22.324 3 12.1336
      vertex 22.574 -5.20343e-15 12.3152
      vertex 22.574 3 12.3152
    endloop
  endfacet
  facet normal -0.58778 0 0.809021
    outer loop
      vertex 22.574 -5.20343e-15 12.3152
      vertex 22.324 3 12.1336
      vertex 22.324 -5.13817e-15 12.1336
    endloop
  endfacet
  facet normal -0.809019 0 0.587782
    outer loop
      vertex 22.574 -5.20343e-15 12.3152
      vertex 22.6648 3 12.4402
      vertex 22.574 3 12.3152
    endloop
  endfacet
  facet normal -0.809019 0 0.587782
    outer loop
      vertex 22.6648 3 12.4402
      vertex 22.574 -5.20343e-15 12.3152
      vertex 22.6648 -5.23773e-15 12.4402
    endloop
  endfacet
  facet normal -0.951053 0 0.309029
    outer loop
      vertex 22.6648 -5.23773e-15 12.4402
      vertex 22.7603 3 12.7341
      vertex 22.6648 3 12.4402
    endloop
  endfacet
  facet normal -0.951053 0 0.309029
    outer loop
      vertex 22.7603 3 12.7341
      vertex 22.6648 -5.23773e-15 12.4402
      vertex 22.7603 -5.30299e-15 12.7341
    endloop
  endfacet
  facet normal -1 0 -1.23445e-05
    outer loop
      vertex 22.7603 -5.30299e-15 12.7341
      vertex 22.7603 3 12.8886
      vertex 22.7603 3 12.7341
    endloop
  endfacet
  facet normal -1 -0 -1.23445e-05
    outer loop
      vertex 22.7603 3 12.8886
      vertex 22.7603 -5.30299e-15 12.7341
      vertex 22.7603 -5.33075e-15 12.8886
    endloop
  endfacet
  facet normal -0.951049 0 -0.309041
    outer loop
      vertex 22.7603 -5.33075e-15 12.8886
      vertex 22.6648 3 13.1825
      vertex 22.7603 3 12.8886
    endloop
  endfacet
  facet normal -0.951049 -0 -0.309041
    outer loop
      vertex 22.6648 3 13.1825
      vertex 22.7603 -5.33075e-15 12.8886
      vertex 22.6648 -5.37108e-15 13.1825
    endloop
  endfacet
  facet normal -0.809021 0 -0.58778
    outer loop
      vertex 22.6648 -5.37108e-15 13.1825
      vertex 22.574 3 13.3075
      vertex 22.6648 3 13.1825
    endloop
  endfacet
  facet normal -0.809021 -0 -0.58778
    outer loop
      vertex 22.574 3 13.3075
      vertex 22.6648 -5.37108e-15 13.1825
      vertex 22.574 -5.38168e-15 13.3075
    endloop
  endfacet
  facet normal -0.587784 0 -0.809018
    outer loop
      vertex 22.324 -5.38168e-15 13.4892
      vertex 22.574 3 13.3075
      vertex 22.574 -5.38168e-15 13.3075
    endloop
  endfacet
  facet normal -0.587784 0 -0.809018
    outer loop
      vertex 22.574 3 13.3075
      vertex 22.324 -5.38168e-15 13.4892
      vertex 22.324 3 13.4892
    endloop
  endfacet
endsolid OpenSCAD_Model
